<svg width="22" height="20" viewBox="0 0 22 20" fill="none" xmlns="http://www.w3.org/2000/svg">
<path d="M21.4355 4.20077C21.0952 3.41274 20.6045 2.69863 19.9908 2.09842C19.3767 1.49643 18.6526 1.01803 17.858 0.689245C17.034 0.346962 16.1503 0.171762 15.258 0.173815C14.0063 0.173815 12.785 0.516589 11.7236 1.16405C11.4697 1.31893 11.2285 1.48905 11 1.6744C10.7715 1.48905 10.5303 1.31893 10.2764 1.16405C9.21504 0.516589 7.99375 0.173815 6.74199 0.173815C5.84062 0.173815 4.96719 0.346472 4.14199 0.689245C3.34473 1.01932 2.62617 1.49413 2.00918 2.09842C1.39472 2.69795 0.90387 3.41223 0.564453 4.20077C0.211523 5.02088 0.03125 5.89178 0.03125 6.78807C0.03125 7.63358 0.203906 8.51463 0.54668 9.41092C0.833594 10.1599 1.24492 10.9369 1.77051 11.7215C2.60332 12.9631 3.74844 14.258 5.17031 15.5707C7.52656 17.7467 9.85996 19.2498 9.95898 19.3107L10.5607 19.6967C10.8273 19.8668 11.1701 19.8668 11.4367 19.6967L12.0385 19.3107C12.1375 19.2473 14.4684 17.7467 16.8271 15.5707C18.249 14.258 19.3941 12.9631 20.227 11.7215C20.7525 10.9369 21.1664 10.1599 21.4508 9.41092C21.7936 8.51463 21.9662 7.63358 21.9662 6.78807C21.9688 5.89178 21.7885 5.02088 21.4355 4.20077Z" fill="#F92424"/>
</svg>
