<svg width="17" height="18" viewBox="0 0 17 18" fill="none" xmlns="http://www.w3.org/2000/svg">
<path d="M16.4375 1.5C16.4375 1.25136 16.3387 1.0129 16.1629 0.837088C15.9871 0.661272 15.7486 0.5625 15.5 0.5625C15.2514 0.5625 15.0129 0.661272 14.8371 0.837088C14.6613 1.0129 14.5625 1.25136 14.5625 1.5V7.59L2.81187 0.7725C1.83687 0.20625 0.5 0.853125 0.5 2.0775V15.9225C0.5 17.1469 1.83687 17.7937 2.81187 17.2275L14.5625 10.41V16.5C14.5625 16.7486 14.6613 16.9871 14.8371 17.1629C15.0129 17.3387 15.2514 17.4375 15.5 17.4375C15.7486 17.4375 15.9871 17.3387 16.1629 17.1629C16.3387 16.9871 16.4375 16.7486 16.4375 16.5V1.5ZM2.375 2.68687L13.2575 9L2.375 15.3131V2.68687Z" fill="white"/>
</svg>
