<svg width="24" height="24" viewBox="0 0 24 24" fill="none" xmlns="http://www.w3.org/2000/svg">
<path d="M21.7501 9.86768V12.375C21.7485 13.7669 21.1949 15.1013 20.2107 16.0855C19.2264 17.0698 17.892 17.6234 16.5001 17.625H3.68573L5.78038 15.5303L4.71979 14.4697L2.62509 16.5643L2.41813 16.7712L0.844727 18.3447L4.31451 22.2483L5.43566 21.2517L3.54524 19.125H16.5001C20.222 19.125 23.2501 16.0968 23.2501 12.375V8.36768L21.7501 9.86768Z" fill="white"/>
<path d="M2.25 12C2.25158 10.6081 2.8052 9.27364 3.78943 8.28942C4.77365 7.3052 6.1081 6.75157 7.5 6.74999H20.3144L18.2197 8.84469L19.2803 9.90529L21.375 7.81063L21.568 7.61769L23.1554 6.03027L19.6856 2.12671L18.5644 3.12327L20.4548 5.24999H7.5C3.77812 5.24999 0.75 8.27812 0.75 12V16.0213L2.25 14.5213V12Z" fill="white"/>
</svg>
