<svg width="17" height="18" viewBox="0 0 17 18" fill="none" xmlns="http://www.w3.org/2000/svg">
<path d="M0.5625 16.5C0.5625 16.7486 0.661271 16.9871 0.837087 17.1629C1.0129 17.3387 1.25136 17.4375 1.5 17.4375C1.74864 17.4375 1.9871 17.3387 2.16291 17.1629C2.33873 16.9871 2.4375 16.7486 2.4375 16.5V10.41L14.1881 17.2275C15.1631 17.7937 16.5 17.1469 16.5 15.9225L16.5 2.0775C16.5 0.853125 15.1631 0.206251 14.1881 0.772501L2.4375 7.59V1.5C2.4375 1.25136 2.33873 1.0129 2.16291 0.837086C1.9871 0.661272 1.74864 0.5625 1.5 0.5625C1.25136 0.5625 1.0129 0.661272 0.837087 0.837086C0.661271 1.0129 0.5625 1.25136 0.5625 1.5L0.5625 16.5ZM14.625 15.3131L3.7425 9L14.625 2.68688L14.625 15.3131Z" fill="white"/>
</svg>
